# xmcd
#
# Track frame offsets:
#	150
#	19452
#	32678
#	48989
#	74854
#	88696
#	114762
#	135680
#	150453
#	168775
#
# Disc length: 2493 seconds
#
# Revision: 0
# Processed by: cddbd v1.5.1PL2 Copyright (c) Steve Scherf et al.
# Submitted via: EasyCDDAExtractor 9.0.0.1
#
DISCID=7e09bb0a
DTITLE=The Blue Mesa Band - Prairie Rider
DYEAR=2000
DGENRE=Southern Rock
TTITLE0=18 Wheels
TTITLE1=Look at Me
TTITLE2=Knock Me Off My Feet
TTITLE3=Islamorada
TTITLE4=Prairie Rider
TTITLE5=Happy Birthday (to me)
TTITLE6=Frank and Jesse
TTITLE7=Night Train to Chama
TTITLE8=Sweet Maisy
TTITLE9=Rock Me Back to Memphis
EXTD=
EXTT0=
EXTT1=
EXTT2=
EXTT3=
EXTT4=
EXTT5=
EXTT6=
EXTT7=
EXTT8=
EXTT9=
PLAYORDER=
